<svg xmlns="http://www.w3.org/2000/svg" xmlns:xlink="http://www.w3.org/1999/xlink" width="500" zoomAndPan="magnify" viewBox="0 0 375 374.999991" height="500" preserveAspectRatio="xMidYMid meet" version="1.0"><defs><clipPath id="id1"><path d="M 82 25.414062 L 330 25.414062 L 330 336.167969 L 82 336.167969 Z M 82 25.414062 " clip-rule="nonzero"/></clipPath><clipPath id="id2"><path d="M 0 236.015625 L 164.128906 236.015625 L 164.128906 349.054688 L 0 349.054688 Z M 0 236.015625 " clip-rule="nonzero"/></clipPath><clipPath id="id3"><path d="M 285.792969 236 L 375 236 L 375 349.09375 L 285.792969 349.09375 Z M 285.792969 236 " clip-rule="nonzero"/></clipPath></defs><g clip-path="url(#id1)"><path fill="rgb(26.669312%, 2.349854%, 79.60968%)" d="M 214.390625 307.175781 C 213.9375 307.175781 213.492188 307.21875 213.050781 307.304688 C 212.609375 307.394531 212.179688 307.523438 211.761719 307.695312 C 211.34375 307.871094 210.949219 308.082031 210.574219 308.332031 C 210.199219 308.582031 209.855469 308.867188 209.535156 309.1875 C 209.214844 309.503906 208.933594 309.851562 208.679688 310.226562 C 208.429688 310.601562 208.21875 310.996094 208.046875 311.414062 C 207.875 311.828125 207.746094 312.257812 207.65625 312.703125 C 207.570312 313.144531 207.527344 313.589844 207.527344 314.039062 C 207.527344 314.492188 207.570312 314.9375 207.660156 315.378906 C 207.746094 315.820312 207.875 316.25 208.050781 316.667969 C 208.222656 317.085938 208.433594 317.480469 208.683594 317.855469 C 208.933594 318.230469 209.21875 318.574219 209.539062 318.894531 C 209.859375 319.210938 210.203125 319.496094 210.578125 319.746094 C 210.953125 319.996094 211.351562 320.207031 211.765625 320.382812 C 212.183594 320.554688 212.613281 320.683594 213.054688 320.769531 C 213.496094 320.859375 213.945312 320.902344 214.394531 320.902344 C 214.84375 320.902344 215.292969 320.855469 215.734375 320.769531 C 216.175781 320.679688 216.605469 320.550781 217.023438 320.378906 C 217.4375 320.203125 217.832031 319.992188 218.207031 319.742188 C 218.582031 319.492188 218.929688 319.207031 219.246094 318.886719 C 219.566406 318.570312 219.851562 318.222656 220.101562 317.847656 C 220.351562 317.472656 220.5625 317.074219 220.734375 316.660156 C 220.90625 316.242188 221.035156 315.8125 221.125 315.371094 C 221.210938 314.929688 221.253906 314.480469 221.253906 314.03125 C 221.253906 313.582031 221.210938 313.132812 221.121094 312.691406 C 221.035156 312.25 220.902344 311.820312 220.730469 311.40625 C 220.558594 310.988281 220.347656 310.59375 220.09375 310.21875 C 219.84375 309.847656 219.558594 309.5 219.242188 309.179688 C 218.921875 308.863281 218.578125 308.578125 218.203125 308.328125 C 217.828125 308.078125 217.429688 307.867188 217.015625 307.695312 C 216.597656 307.523438 216.167969 307.394531 215.726562 307.304688 C 215.285156 307.21875 214.839844 307.175781 214.390625 307.175781 Z M 219.929688 254.507812 C 216.039062 258.027344 210.425781 257.527344 207.726562 257.015625 C 206.671875 256.820312 205.621094 256.820312 204.570312 257.015625 C 201.859375 257.527344 196.257812 258.027344 192.355469 254.507812 C 192.289062 254.449219 192.21875 254.445312 192.144531 254.496094 C 192.070312 254.542969 192.050781 254.613281 192.082031 254.695312 C 193.066406 256.980469 194.519531 258.917969 196.4375 260.5 C 197.015625 260.992188 197.664062 261.351562 198.386719 261.578125 C 199.109375 261.804688 199.847656 261.882812 200.601562 261.808594 C 202.34375 261.65625 204.5625 261.503906 206.148438 261.503906 C 207.734375 261.503906 209.945312 261.65625 211.691406 261.808594 C 212.445312 261.882812 213.183594 261.804688 213.90625 261.578125 C 214.625 261.351562 215.277344 260.992188 215.851562 260.5 C 217.773438 258.917969 219.226562 256.984375 220.207031 254.695312 C 220.238281 254.613281 220.21875 254.542969 220.144531 254.496094 C 220.070312 254.445312 220 254.449219 219.933594 254.507812 Z M 229.382812 243.101562 C 228.269531 242.421875 227.21875 241.65625 226.226562 240.808594 C 226.171875 240.765625 226.113281 240.757812 226.050781 240.78125 C 225.988281 240.804688 225.953125 240.851562 225.941406 240.921875 C 225.925781 241.261719 225.945312 241.601562 225.996094 241.9375 C 226.023438 242.125 225.984375 242.296875 225.882812 242.453125 C 225.78125 242.613281 225.644531 242.71875 225.464844 242.777344 C 224.417969 243.089844 223.347656 243.210938 222.257812 243.128906 C 218.910156 241.886719 215.496094 240.871094 212.011719 240.089844 C 211.628906 240.003906 211.253906 240.03125 210.882812 240.171875 L 206.910156 241.703125 C 206.398438 241.894531 205.886719 241.894531 205.378906 241.703125 L 201.402344 240.171875 C 201.035156 240.03125 200.660156 240.003906 200.273438 240.089844 C 196.789062 240.871094 193.375 241.886719 190.03125 243.128906 C 188.941406 243.210938 187.875 243.09375 186.832031 242.777344 C 186.648438 242.722656 186.507812 242.617188 186.40625 242.457031 C 186.304688 242.296875 186.269531 242.125 186.296875 241.9375 C 186.347656 241.601562 186.363281 241.261719 186.34375 240.921875 C 186.335938 240.851562 186.300781 240.808594 186.234375 240.78125 C 186.171875 240.757812 186.113281 240.765625 186.0625 240.808594 C 185.0625 241.660156 184.003906 242.429688 182.882812 243.109375 C 182.816406 243.144531 182.789062 243.203125 182.800781 243.277344 C 182.808594 243.351562 182.851562 243.394531 182.925781 243.414062 C 183.753906 243.617188 184.59375 243.699219 185.445312 243.671875 C 186.800781 244.742188 188.300781 245.542969 189.945312 246.074219 C 190.410156 246.199219 190.894531 246.308594 191.378906 246.417969 C 192.757812 248.328125 195.523438 250.613281 200.980469 250.953125 C 201.082031 250.960938 201.140625 250.914062 201.160156 250.8125 C 201.183594 250.714844 201.144531 250.648438 201.050781 250.613281 C 197.667969 249.339844 196.203125 248.058594 195.460938 246.863281 C 196.992188 246.832031 198.507812 246.660156 200.003906 246.335938 C 201.90625 247.503906 203.953125 248.289062 206.144531 248.699219 C 208.339844 248.289062 210.386719 247.503906 212.289062 246.335938 C 213.785156 246.660156 215.296875 246.835938 216.828125 246.863281 C 216.089844 248.0625 214.621094 249.34375 211.238281 250.617188 C 211.144531 250.652344 211.109375 250.71875 211.128906 250.816406 C 211.148438 250.910156 211.207031 250.957031 211.304688 250.957031 C 216.761719 250.617188 219.527344 248.332031 220.910156 246.417969 C 221.394531 246.308594 221.875 246.199219 222.339844 246.074219 C 223.984375 245.546875 225.484375 244.746094 226.839844 243.671875 C 227.683594 243.703125 228.519531 243.617188 229.339844 243.414062 C 229.421875 243.402344 229.464844 243.355469 229.476562 243.273438 C 229.488281 243.195312 229.457031 243.136719 229.382812 243.105469 Z M 206.144531 232.925781 C 210.183594 232.925781 217.082031 226.570312 217.082031 224.40625 C 217.058594 223.664062 216.839844 222.984375 216.421875 222.367188 C 216.003906 221.75 215.453125 221.296875 214.769531 221 C 214.6875 220.960938 214.613281 220.972656 214.546875 221.03125 C 214.480469 221.09375 214.460938 221.164062 214.492188 221.25 C 214.746094 221.980469 214.773438 222.71875 214.570312 223.464844 C 213.96875 225.367188 209.304688 227.226562 207.1875 227.988281 C 206.492188 228.238281 205.796875 228.238281 205.101562 227.988281 C 202.984375 227.226562 198.328125 225.367188 197.71875 223.464844 C 197.515625 222.71875 197.542969 221.980469 197.800781 221.25 C 197.828125 221.164062 197.808594 221.09375 197.742188 221.03125 C 197.671875 220.972656 197.597656 220.964844 197.519531 221 C 196.832031 221.296875 196.28125 221.75 195.863281 222.367188 C 195.445312 222.984375 195.226562 223.664062 195.203125 224.40625 C 195.203125 226.570312 202.101562 232.925781 206.148438 232.925781 Z M 185.214844 195.726562 C 185.207031 195.484375 185.183594 195.246094 185.136719 195.007812 C 187.078125 196.113281 188.554688 197.660156 189.578125 199.640625 C 189.6875 199.839844 189.855469 199.90625 190.070312 199.84375 C 190.289062 199.777344 190.390625 199.632812 190.375 199.40625 C 189.617188 191.332031 180.082031 188.683594 176.6875 188.683594 C 173.933594 188.683594 172.546875 188.683594 169.902344 189.480469 C 169.796875 189.511719 169.710938 189.484375 169.648438 189.394531 C 169.582031 189.304688 169.582031 189.21875 169.644531 189.128906 C 173.414062 183.65625 181.203125 184.308594 184.855469 185.566406 C 184.976562 185.609375 185.070312 185.570312 185.128906 185.457031 C 185.191406 185.34375 185.171875 185.246094 185.070312 185.167969 C 183.765625 184.078125 180.984375 182.867188 177.179688 182.867188 C 167.527344 182.867188 164.171875 188.976562 163.875 191.738281 C 162.476562 191.738281 160.523438 191.03125 159.902344 189.488281 C 159.863281 189.390625 159.792969 189.34375 159.6875 189.34375 C 159.585938 189.34375 159.515625 189.390625 159.476562 189.488281 C 156.996094 195.78125 163.550781 198.921875 165.550781 198.4375 C 167.546875 200.152344 171.683594 201.953125 174.339844 200.574219 C 174.445312 200.515625 174.480469 200.425781 174.453125 200.3125 C 174.421875 200.199219 174.347656 200.140625 174.230469 200.136719 C 170.199219 200.101562 168.808594 197.652344 168.808594 197.652344 C 170.296875 196.101562 172.058594 194.976562 174.089844 194.277344 C 173.855469 195.113281 173.816406 195.957031 173.984375 196.8125 C 174.148438 197.664062 174.5 198.433594 175.03125 199.117188 C 177.339844 199.824219 181.414062 200.03125 184.039062 199.144531 C 184.820312 198.144531 185.214844 197.003906 185.214844 195.730469 Z M 252.175781 189.488281 C 252.136719 189.390625 252.066406 189.34375 251.960938 189.34375 C 251.859375 189.34375 251.785156 189.390625 251.746094 189.488281 C 251.132812 191.03125 249.179688 191.738281 247.78125 191.738281 C 247.480469 188.976562 244.125 182.867188 234.472656 182.867188 C 230.664062 182.867188 227.886719 184.078125 226.578125 185.167969 C 226.480469 185.25 226.464844 185.347656 226.527344 185.460938 C 226.59375 185.574219 226.683594 185.609375 226.808594 185.566406 C 230.449219 184.308594 238.242188 183.65625 242.007812 189.128906 C 242.070312 189.21875 242.070312 189.304688 242.003906 189.394531 C 241.941406 189.484375 241.855469 189.511719 241.753906 189.480469 C 239.105469 188.683594 237.714844 188.683594 234.964844 188.683594 C 231.570312 188.683594 222.027344 191.332031 221.28125 199.40625 C 221.261719 199.632812 221.363281 199.777344 221.578125 199.84375 C 221.796875 199.90625 221.960938 199.839844 222.070312 199.640625 C 223.097656 197.664062 224.578125 196.121094 226.507812 195.007812 C 226.472656 195.246094 226.449219 195.488281 226.4375 195.726562 C 226.441406 197 226.832031 198.140625 227.617188 199.144531 C 230.242188 200.03125 234.3125 199.820312 236.621094 199.113281 C 237.15625 198.429688 237.503906 197.660156 237.671875 196.808594 C 237.835938 195.953125 237.800781 195.109375 237.5625 194.273438 C 239.597656 194.972656 241.359375 196.097656 242.847656 197.648438 C 242.847656 197.648438 241.449219 199.65625 237.417969 199.640625 C 237.296875 199.640625 237.222656 199.699219 237.191406 199.816406 C 237.160156 199.929688 237.195312 200.019531 237.300781 200.078125 C 239.945312 201.554688 244.109375 200.152344 246.101562 198.4375 C 248.101562 198.917969 254.648438 195.78125 252.175781 189.488281 Z M 228.558594 175.476562 C 233.191406 173.703125 239.5625 172.269531 244.917969 173.605469 C 248.847656 174.582031 251.5 178.117188 252.65625 180.683594 C 252.726562 180.847656 252.851562 180.902344 253.019531 180.851562 C 253.191406 180.800781 253.261719 180.6875 253.238281 180.511719 C 252.972656 179.101562 252.574219 177.730469 252.046875 176.398438 C 251.535156 175.054688 250.785156 173.863281 249.796875 172.816406 C 248.808594 171.773438 247.65625 170.957031 246.34375 170.371094 C 242.296875 168.515625 238.042969 167.558594 233.585938 167.496094 C 224.125 167.496094 219.394531 171.4375 219.394531 171.4375 C 219.394531 171.4375 221.5625 175.476562 228.5625 175.476562 Z M 328.941406 172.078125 C 329.3125 173.632812 329.492188 175.207031 329.476562 176.808594 C 329.460938 178.40625 329.253906 179.980469 328.851562 181.527344 C 328.453125 183.078125 327.871094 184.554688 327.105469 185.957031 C 326.34375 187.363281 325.421875 188.65625 324.339844 189.835938 C 307.636719 208.3125 292.445312 217.34375 286.984375 231.863281 C 286.335938 233.5 285.421875 234.976562 284.242188 236.289062 C 283.066406 237.601562 281.695312 238.671875 280.136719 239.492188 C 274.308594 242.695312 269.019531 248.246094 253.316406 252.546875 C 248.621094 258.097656 243.59375 263.347656 243.59375 263.347656 L 243.59375 271.546875 C 249.160156 275.261719 252.457031 279.824219 252.457031 284.761719 L 252.457031 300.207031 C 252.457031 320.054688 231.722656 336.140625 206.140625 336.140625 C 180.5625 336.140625 159.820312 320.058594 159.820312 300.207031 L 159.820312 284.761719 C 159.820312 279.824219 163.117188 275.261719 168.691406 271.546875 L 168.691406 263.347656 C 168.691406 263.347656 163.671875 258.039062 159.058594 252.625 C 143.03125 248.316406 138.03125 242.734375 132.144531 239.492188 C 130.585938 238.667969 129.21875 237.597656 128.039062 236.285156 C 126.863281 234.972656 125.949219 233.5 125.300781 231.859375 C 119.84375 217.34375 104.660156 208.3125 87.945312 189.832031 C 86.867188 188.652344 85.945312 187.363281 85.183594 185.957031 C 84.421875 184.550781 83.839844 183.074219 83.4375 181.527344 C 83.035156 179.976562 82.828125 178.40625 82.8125 176.804688 C 82.796875 175.207031 82.976562 173.628906 83.347656 172.074219 C 88.15625 152.53125 89.351562 130.976562 89.953125 109.046875 C 89.984375 107.773438 90.136719 106.511719 90.414062 105.265625 C 90.691406 104.023438 91.085938 102.816406 91.601562 101.648438 C 92.117188 100.484375 92.746094 99.378906 93.480469 98.335938 C 94.214844 97.292969 95.042969 96.332031 95.96875 95.453125 C 109.246094 83.007812 120.605469 67.753906 131.738281 48.945312 C 132.480469 47.691406 133.351562 46.539062 134.351562 45.480469 C 135.351562 44.425781 136.457031 43.496094 137.667969 42.691406 C 138.882812 41.882812 140.167969 41.222656 141.527344 40.707031 C 142.886719 40.191406 144.289062 39.835938 145.730469 39.636719 C 162.9375 37.160156 179.777344 33.152344 196.257812 27.613281 C 199.464844 26.53125 202.761719 25.992188 206.144531 25.992188 C 209.527344 25.992188 212.824219 26.53125 216.03125 27.613281 C 232.507812 33.152344 249.351562 37.160156 266.558594 39.640625 C 267.996094 39.839844 269.398438 40.195312 270.757812 40.710938 C 272.117188 41.226562 273.40625 41.886719 274.617188 42.691406 C 275.828125 43.496094 276.933594 44.425781 277.933594 45.484375 C 278.9375 46.539062 279.808594 47.691406 280.546875 48.945312 C 291.691406 67.753906 303.050781 83.007812 316.320312 95.453125 C 317.246094 96.332031 318.078125 97.289062 318.8125 98.332031 C 319.546875 99.375 320.171875 100.480469 320.6875 101.648438 C 321.203125 102.816406 321.601562 104.019531 321.875 105.265625 C 322.152344 106.511719 322.304688 107.773438 322.332031 109.046875 C 322.9375 130.976562 324.132812 152.53125 328.941406 172.074219 Z M 92.300781 173.558594 C 93.851562 192.039062 117.433594 188.726562 122.84375 181.535156 C 122.953125 181.390625 122.949219 181.25 122.824219 181.117188 C 122.703125 180.984375 122.5625 180.964844 122.410156 181.058594 C 116.515625 184.589844 99.914062 186.84375 92.917969 173.371094 C 92.832031 173.214844 92.703125 173.160156 92.53125 173.214844 C 92.363281 173.265625 92.285156 173.378906 92.300781 173.558594 Z M 125.464844 201.332031 C 131.078125 201.332031 134.40625 193.792969 133.78125 187.253906 C 133.488281 184.226562 129.839844 183.53125 127.734375 185.722656 C 122.503906 191.152344 116.003906 192.722656 111.519531 193.148438 C 111.125 193.199219 110.769531 193.351562 110.460938 193.605469 C 110.148438 193.859375 109.929688 194.175781 109.800781 194.554688 C 109.671875 194.9375 109.652344 195.320312 109.746094 195.710938 C 109.835938 196.101562 110.023438 196.4375 110.308594 196.71875 C 113.480469 199.914062 119.667969 201.332031 125.464844 201.332031 Z M 224.277344 317.191406 C 224.257812 319.171875 224.234375 321.386719 224.222656 323.824219 C 218.414062 326.109375 212.386719 327.234375 206.144531 327.203125 C 185.535156 327.203125 168.765625 315.097656 168.765625 300.207031 L 168.765625 299.597656 C 168.765625 299.515625 168.804688 299.457031 168.878906 299.425781 C 168.953125 299.390625 169.023438 299.402344 169.082031 299.460938 C 180.117188 309.488281 194.253906 308.824219 198.148438 308.417969 C 198.253906 308.40625 198.308594 308.347656 198.316406 308.242188 C 198.324219 308.132812 198.277344 308.066406 198.171875 308.039062 C 173.695312 301.949219 169.167969 292.667969 168.765625 287.320312 L 168.765625 285.621094 C 168.796875 285.195312 168.855469 284.777344 168.945312 284.367188 C 168.980469 284.191406 169.085938 284.101562 169.261719 284.089844 C 169.4375 284.078125 169.554688 284.15625 169.609375 284.324219 C 173.136719 294.707031 188.15625 302.503906 206.144531 302.503906 C 211.707031 302.53125 217.160156 301.757812 222.496094 300.191406 C 224.359375 302.199219 224.402344 305.394531 224.277344 317.1875 Z M 243.519531 287.933594 L 243.519531 285.507812 C 243.484375 285.121094 243.425781 284.738281 243.34375 284.359375 C 243.316406 284.179688 243.210938 284.082031 243.027344 284.074219 C 242.84375 284.0625 242.726562 284.144531 242.675781 284.320312 C 240.839844 289.734375 235.859375 294.429688 228.980469 297.699219 C 231.136719 301.410156 231.09375 306.589844 230.980469 317.257812 C 230.964844 318.234375 230.960938 319.292969 230.945312 320.375 C 238.652344 315.429688 243.515625 308.21875 243.515625 300.207031 L 243.515625 297.574219 C 243.515625 297.492188 243.480469 297.433594 243.402344 297.402344 C 243.328125 297.367188 243.257812 297.378906 243.199219 297.4375 C 240.535156 299.65625 237.5 301.101562 234.101562 301.773438 C 234 301.785156 233.929688 301.746094 233.894531 301.652344 C 233.855469 301.554688 233.878906 301.480469 233.960938 301.421875 C 241.164062 296.550781 243.171875 291.496094 243.519531 287.933594 Z M 248.886719 235.160156 C 251.4375 234.554688 253.707031 233.398438 255.695312 231.695312 C 255.78125 231.613281 255.875 231.597656 255.980469 231.644531 C 256.085938 231.691406 256.140625 231.773438 256.136719 231.890625 C 255.65625 244.714844 243.296875 256.585938 238.960938 260.457031 C 228.003906 270.257812 219.507812 281.214844 206.144531 281.214844 C 192.785156 281.214844 184.285156 270.257812 173.324219 260.457031 C 168.988281 256.585938 156.636719 244.714844 156.144531 231.890625 C 156.144531 231.773438 156.195312 231.691406 156.304688 231.644531 C 156.410156 231.597656 156.503906 231.613281 156.589844 231.695312 C 158.578125 233.398438 160.847656 234.554688 163.398438 235.160156 C 163.519531 235.179688 163.613281 235.136719 163.671875 235.023438 C 163.730469 234.914062 163.714844 234.8125 163.625 234.722656 C 155.230469 225.871094 150.589844 217.109375 148.0625 208.472656 C 147.613281 206.9375 147.316406 205.371094 147.171875 203.777344 C 147.03125 202.183594 147.042969 200.589844 147.214844 198.996094 C 147.386719 197.40625 147.710938 195.847656 148.1875 194.316406 C 148.664062 192.789062 149.285156 191.324219 150.050781 189.917969 C 152.613281 185.308594 155.808594 181.183594 159.632812 177.546875 C 159.632812 177.546875 158.710938 184.25 160.15625 187.535156 C 163.566406 181.414062 168.53125 176.921875 174.300781 173.273438 C 177.324219 173.648438 180.253906 174.382812 183.097656 175.480469 C 190.09375 175.480469 192.261719 171.441406 192.261719 171.441406 C 192.261719 171.441406 189.53125 169.175781 184.09375 168.074219 C 198.285156 161.59375 214.574219 157.296875 225.199219 147.0625 C 234.261719 147.0625 239.910156 147.984375 245.410156 150.359375 C 248.0625 160.359375 254.65625 178.589844 266.980469 191.359375 C 266.21875 205.441406 262.671875 219.960938 248.660156 234.726562 C 248.574219 234.816406 248.558594 234.914062 248.617188 235.027344 C 248.675781 235.136719 248.765625 235.179688 248.890625 235.160156 Z M 273.050781 166.867188 C 273.046875 167.039062 272.960938 167.128906 272.789062 167.144531 C 272.621094 167.15625 272.519531 167.078125 272.492188 166.910156 C 267.773438 141.921875 233.914062 141.546875 228.550781 141.546875 C 174.964844 141.546875 150.945312 177.039062 143.851562 190.933594 C 143.777344 191.082031 143.660156 191.128906 143.503906 191.074219 C 143.347656 191.019531 143.285156 190.910156 143.316406 190.746094 C 152.453125 149.675781 197.421875 138.929688 216.984375 135.4375 C 217.0625 135.429688 217.125 135.398438 217.171875 135.339844 C 217.222656 135.28125 217.242188 135.214844 217.234375 135.136719 C 217.230469 135.0625 217.195312 135 217.136719 134.949219 C 217.078125 134.902344 217.011719 134.878906 216.9375 134.886719 C 170.179688 134.386719 147.316406 164.308594 143.339844 171.011719 C 143.269531 171.148438 143.160156 171.195312 143.011719 171.148438 C 142.867188 171.105469 142.800781 171.003906 142.820312 170.851562 C 144.164062 150.578125 155.730469 140.613281 160.746094 136.949219 C 164.960938 133.875 166.050781 127.960938 174.285156 123.414062 C 180.230469 120.125 187.085938 119.789062 192.890625 119.789062 C 194.425781 119.789062 195.894531 119.808594 197.253906 119.808594 C 198.347656 119.808594 199.367188 119.789062 200.300781 119.730469 C 207.246094 119.308594 215.019531 111.847656 229.597656 111.847656 C 237.742188 111.847656 244.839844 114.28125 251.996094 117.722656 C 252.140625 117.789062 252.257812 117.757812 252.347656 117.628906 C 252.441406 117.5 252.429688 117.378906 252.320312 117.265625 C 240.421875 104.953125 224.285156 97.386719 206.527344 97.386719 C 170.710938 97.386719 141.53125 128.140625 140.265625 166.59375 C 140.257812 166.765625 140.171875 166.855469 140 166.867188 C 139.828125 166.878906 139.730469 166.796875 139.703125 166.628906 C 138.636719 159.046875 137.902344 136.8125 153.734375 118.511719 C 166.273438 102.679688 185.152344 92.597656 206.277344 92.597656 C 238.25 92.597656 265.09375 115.6875 272.546875 146.882812 C 272.597656 147.042969 272.546875 147.15625 272.390625 147.222656 C 272.238281 147.289062 272.121094 147.25 272.039062 147.101562 C 270.074219 144.140625 264.609375 138.296875 251.828125 137.4375 C 251.667969 137.421875 251.566406 137.492188 251.53125 137.652344 C 251.496094 137.8125 251.554688 137.917969 251.707031 137.976562 C 271.820312 145.710938 273.277344 161.035156 273.054688 166.867188 Z M 279.285156 122.582031 C 285.914062 121.570312 292.707031 118.78125 299.371094 115.644531 C 299.90625 115.398438 300.355469 115.042969 300.71875 114.578125 C 301.082031 114.113281 301.316406 113.589844 301.421875 113.011719 C 301.960938 109.292969 302.21875 105.558594 302.199219 101.804688 C 302.199219 101.628906 302.285156 101.511719 302.449219 101.449219 C 302.613281 101.390625 302.753906 101.425781 302.871094 101.558594 C 305.140625 104.046875 307.234375 106.675781 309.160156 109.4375 C 309.292969 109.667969 309.464844 109.863281 309.671875 110.03125 C 309.878906 110.195312 310.109375 110.320312 310.363281 110.402344 C 310.617188 110.480469 310.875 110.515625 311.140625 110.503906 C 311.40625 110.488281 311.660156 110.429688 311.902344 110.324219 C 314.339844 109.175781 316.40625 104.628906 311.738281 100.34375 C 298.652344 88.328125 286.90625 72.828125 274.785156 52.359375 C 274.300781 51.542969 273.730469 50.785156 273.074219 50.097656 C 272.421875 49.40625 271.695312 48.796875 270.902344 48.269531 C 270.109375 47.742188 269.269531 47.3125 268.378906 46.972656 C 267.488281 46.636719 266.570312 46.402344 265.628906 46.273438 C 248.011719 43.738281 230.769531 39.636719 213.898438 33.972656 C 211.832031 33.277344 209.710938 32.867188 207.539062 32.742188 C 205.363281 32.613281 203.210938 32.777344 201.078125 33.222656 C 199.988281 33.464844 198.917969 33.773438 197.863281 34.144531 C 181.160156 39.722656 164.097656 43.765625 146.667969 46.277344 C 145.722656 46.40625 144.804688 46.636719 143.914062 46.972656 C 143.023438 47.308594 142.183594 47.742188 141.390625 48.269531 C 140.597656 48.796875 139.875 49.40625 139.21875 50.097656 C 138.5625 50.789062 137.996094 51.542969 137.511719 52.363281 C 127.496094 69.277344 117.730469 82.621094 107.257812 93.664062 C 103.449219 98.34375 99.976562 102.839844 99.976562 105.546875 C 99.980469 107.066406 100.457031 108.414062 101.410156 109.59375 C 101.574219 109.800781 101.773438 109.960938 102.007812 110.074219 C 102.246094 110.1875 102.496094 110.242188 102.757812 110.238281 C 103.019531 110.234375 103.269531 110.171875 103.503906 110.050781 C 103.734375 109.929688 103.929688 109.765625 104.085938 109.550781 L 115.75 93.371094 C 115.816406 93.273438 115.910156 93.210938 116.027344 93.179688 C 116.144531 93.148438 116.257812 93.160156 116.367188 93.214844 C 116.472656 93.269531 116.550781 93.351562 116.597656 93.460938 C 116.644531 93.574219 116.652344 93.6875 116.613281 93.800781 L 110.199219 113.511719 C 110.089844 113.851562 110.089844 114.1875 110.199219 114.527344 C 110.308594 114.863281 110.507812 115.136719 110.792969 115.347656 C 111.082031 115.558594 111.402344 115.664062 111.757812 115.664062 C 112.113281 115.664062 112.433594 115.5625 112.722656 115.355469 L 114.789062 113.871094 C 115.476562 113.375 116.242188 113.09375 117.085938 113.03125 C 117.929688 112.964844 118.730469 113.125 119.484375 113.511719 C 124.90625 116.308594 130.488281 118.714844 136.242188 120.742188 C 136.820312 120.9375 137.40625 120.949219 137.996094 120.777344 C 138.585938 120.605469 139.070312 120.28125 139.457031 119.804688 C 139.84375 119.328125 140.058594 118.78125 140.101562 118.171875 C 140.144531 117.558594 140.011719 116.992188 139.695312 116.464844 C 138.070312 113.6875 136.261719 111.035156 134.273438 108.503906 C 134.152344 108.359375 134.144531 108.210938 134.25 108.054688 C 134.355469 107.898438 134.496094 107.847656 134.675781 107.902344 C 139.058594 109.34375 143.632812 111.128906 147.34375 112.273438 C 147.863281 112.433594 148.386719 112.4375 148.90625 112.28125 C 149.429688 112.128906 149.867188 111.84375 150.21875 111.429688 C 150.570312 111.011719 150.777344 110.53125 150.84375 109.992188 C 150.90625 109.449219 150.816406 108.9375 150.570312 108.449219 L 147.847656 103.003906 C 147.765625 102.855469 147.78125 102.710938 147.894531 102.582031 C 148.007812 102.449219 148.144531 102.414062 148.304688 102.472656 C 150.457031 103.25 152.667969 103.804688 154.933594 104.125 C 155.199219 104.160156 155.460938 104.160156 155.726562 104.128906 C 155.992188 104.09375 156.246094 104.03125 156.496094 103.933594 C 156.742188 103.835938 156.972656 103.707031 157.191406 103.550781 C 157.40625 103.394531 157.597656 103.214844 157.769531 103.011719 C 157.941406 102.804688 158.082031 102.585938 158.199219 102.34375 C 158.3125 102.101562 158.394531 101.851562 158.445312 101.589844 C 158.496094 101.328125 158.515625 101.066406 158.5 100.800781 C 158.484375 100.535156 158.4375 100.273438 158.355469 100.019531 C 155.660156 91.765625 148.269531 74.269531 144.523438 65.535156 C 144.480469 65.4375 144.476562 65.339844 144.511719 65.242188 C 144.546875 65.140625 144.613281 65.066406 144.707031 65.015625 C 144.800781 64.96875 144.898438 64.957031 145 64.984375 C 145.101562 65.011719 145.179688 65.070312 145.238281 65.160156 C 150.0625 72.980469 159.589844 88.066406 164.054688 92.898438 C 164.136719 92.992188 164.230469 93.070312 164.332031 93.136719 C 164.433594 93.203125 164.546875 93.257812 164.660156 93.296875 C 164.777344 93.335938 164.898438 93.359375 165.019531 93.367188 C 165.144531 93.375 165.265625 93.371094 165.386719 93.347656 C 165.507812 93.324219 165.625 93.285156 165.734375 93.234375 C 165.847656 93.183594 165.949219 93.117188 166.042969 93.039062 C 166.140625 92.960938 166.222656 92.871094 166.296875 92.769531 C 166.367188 92.671875 166.425781 92.5625 166.46875 92.449219 C 166.546875 92.25 166.621094 92.0625 166.691406 91.875 C 166.875 91.410156 167.136719 90.992188 167.472656 90.625 C 167.808594 90.253906 168.199219 89.957031 168.644531 89.726562 C 169.085938 89.5 169.558594 89.355469 170.054688 89.300781 C 170.550781 89.242188 171.039062 89.273438 171.527344 89.394531 L 172.648438 89.675781 C 172.851562 89.726562 173.058594 89.753906 173.265625 89.757812 C 173.476562 89.757812 173.683594 89.738281 173.886719 89.691406 C 174.089844 89.644531 174.285156 89.574219 174.472656 89.480469 C 174.660156 89.386719 174.835938 89.273438 174.996094 89.140625 C 175.15625 89.007812 175.300781 88.855469 175.425781 88.6875 C 175.550781 88.519531 175.652344 88.339844 175.734375 88.148438 C 175.816406 87.957031 175.878906 87.757812 175.914062 87.550781 C 175.949219 87.34375 175.957031 87.136719 175.945312 86.925781 L 175.21875 75.644531 C 175.203125 75.453125 175.285156 75.324219 175.464844 75.257812 C 175.644531 75.191406 175.789062 75.234375 175.902344 75.390625 C 177.574219 77.730469 181.605469 82.980469 184.851562 83.992188 C 188.132812 83.464844 195.496094 82.804688 195.496094 82.804688 C 195.496094 82.804688 201.703125 81.316406 201.691406 44.914062 C 201.6875 44.808594 201.722656 44.714844 201.792969 44.636719 C 201.863281 44.558594 201.953125 44.511719 202.058594 44.503906 C 202.164062 44.492188 202.257812 44.515625 202.34375 44.582031 C 202.429688 44.644531 202.480469 44.726562 202.5 44.832031 C 203.917969 54.042969 204.222656 78.734375 207.714844 81.882812 C 216 82.289062 220.460938 83.726562 220.460938 83.726562 L 227.753906 77.015625 C 227.894531 76.886719 228.046875 76.871094 228.210938 76.96875 C 228.375 77.070312 228.433594 77.210938 228.382812 77.398438 L 226.5625 83.957031 C 226.5 84.175781 226.480469 84.398438 226.503906 84.625 C 226.523438 84.851562 226.585938 85.0625 226.691406 85.265625 C 226.792969 85.46875 226.925781 85.644531 227.097656 85.796875 C 227.265625 85.949219 227.457031 86.066406 227.667969 86.144531 C 228.402344 86.421875 229.289062 86.761719 230.082031 87.082031 C 230.605469 87.289062 231.144531 87.34375 231.695312 87.242188 C 232.25 87.144531 232.738281 86.90625 233.15625 86.527344 C 235.648438 84.296875 238.199219 82.261719 239.605469 81.167969 C 239.757812 81.046875 239.910156 81.042969 240.066406 81.164062 C 240.222656 81.28125 240.261719 81.429688 240.1875 81.609375 L 237.671875 87.992188 C 237.621094 88.117188 237.617188 88.246094 237.65625 88.375 C 237.695312 88.503906 237.769531 88.609375 237.878906 88.6875 C 237.992188 88.765625 238.113281 88.800781 238.25 88.792969 C 238.386719 88.785156 238.503906 88.738281 238.605469 88.648438 L 246.019531 82 C 246.160156 81.871094 246.3125 81.859375 246.472656 81.960938 C 246.632812 82.0625 246.6875 82.203125 246.636719 82.386719 L 245.480469 86.375 C 245.441406 86.507812 245.449219 86.640625 245.5 86.769531 C 245.554688 86.898438 245.640625 86.996094 245.761719 87.0625 C 245.882812 87.132812 246.011719 87.152344 246.148438 87.132812 C 246.285156 87.109375 246.398438 87.046875 246.492188 86.945312 C 251.382812 81.515625 265.339844 65.917969 270.386719 59.296875 C 270.445312 59.214844 270.527344 59.160156 270.625 59.140625 C 270.722656 59.117188 270.816406 59.128906 270.90625 59.179688 C 270.992188 59.230469 271.054688 59.304688 271.085938 59.398438 C 271.121094 59.496094 271.117188 59.589844 271.078125 59.683594 C 267.371094 68.894531 257.480469 85.527344 253.53125 92.042969 C 253.300781 92.421875 253.140625 92.832031 253.054688 93.269531 C 252.96875 93.707031 252.957031 94.148438 253.027344 94.589844 C 253.09375 95.03125 253.234375 95.445312 253.449219 95.835938 C 253.664062 96.226562 253.9375 96.570312 254.273438 96.867188 C 256.890625 99.171875 260.976562 102.855469 263.035156 105.085938 C 263.289062 105.363281 263.574219 105.59375 263.894531 105.78125 C 264.21875 105.972656 264.558594 106.109375 264.921875 106.195312 C 265.285156 106.285156 265.652344 106.316406 266.023438 106.292969 C 266.398438 106.269531 266.757812 106.195312 267.109375 106.0625 C 269.632812 104.992188 272.019531 103.675781 274.269531 102.109375 C 274.429688 102.003906 274.582031 102.015625 274.726562 102.140625 C 274.871094 102.265625 274.902344 102.414062 274.820312 102.585938 L 272.121094 108.605469 C 271.917969 109.058594 271.851562 109.527344 271.917969 110.015625 C 271.988281 110.507812 272.183594 110.9375 272.503906 111.316406 C 272.828125 111.691406 273.222656 111.953125 273.695312 112.097656 C 274.167969 112.242188 274.640625 112.25 275.117188 112.121094 C 279.121094 111.035156 285.410156 108.636719 293.492188 103.359375 C 293.679688 103.234375 293.847656 103.25 294.007812 103.410156 C 294.164062 103.566406 294.179688 103.738281 294.054688 103.921875 C 292.363281 106.4375 287.9375 111.902344 277.804688 119.035156 C 277.433594 119.300781 277.179688 119.65625 277.054688 120.097656 C 276.929688 120.539062 276.953125 120.972656 277.128906 121.394531 C 277.304688 121.820312 277.597656 122.144531 278 122.363281 C 278.402344 122.585938 278.828125 122.660156 279.28125 122.582031 Z M 293.003906 209.609375 C 299.804688 201.890625 304.429688 201.191406 312.714844 189.765625 C 307.75 188.449219 299.925781 185.039062 295.324219 180.898438 C 294.957031 180.5625 294.527344 180.355469 294.035156 180.277344 C 293.546875 180.199219 293.074219 180.265625 292.621094 180.472656 C 292.167969 180.679688 291.8125 180.996094 291.550781 181.417969 C 291.289062 181.839844 291.164062 182.300781 291.179688 182.796875 C 291.277344 184.882812 291.65625 186.914062 292.308594 188.894531 C 292.964844 190.875 293.878906 192.730469 295.046875 194.460938 C 295.320312 194.863281 295.460938 195.304688 295.472656 195.789062 C 295.480469 196.277344 295.359375 196.726562 295.101562 197.136719 C 294.847656 197.550781 294.5 197.859375 294.058594 198.0625 C 293.617188 198.269531 293.15625 198.339844 292.675781 198.269531 C 292.515625 198.246094 292.355469 198.214844 292.199219 198.171875 C 291.957031 198.113281 291.714844 198.109375 291.46875 198.152344 C 291.226562 198.195312 291 198.289062 290.796875 198.425781 C 290.589844 198.566406 290.421875 198.742188 290.289062 198.949219 C 290.160156 199.160156 290.074219 199.390625 290.039062 199.632812 C 289.636719 202.34375 290.839844 206.558594 293.003906 209.609375 Z M 318.332031 181.585938 C 319.902344 179.515625 320.007812 175.582031 318.621094 173.40625 C 300.753906 175.71875 293.492188 166.546875 285.570312 165.925781 C 285.390625 165.914062 285.277344 165.992188 285.230469 166.167969 C 285.183594 166.34375 285.242188 166.46875 285.402344 166.546875 C 297.199219 172.28125 295.808594 178.355469 318.332031 181.582031 Z M 294.84375 89.378906 L 290.132812 95.183594 C 289.980469 95.363281 289.96875 95.554688 290.09375 95.753906 C 290.222656 95.957031 290.402344 96.023438 290.632812 95.957031 L 298.8125 93.777344 C 298.125 91.90625 297.242188 90.722656 294.84375 89.378906 Z M 279.992188 70.722656 C 279.992188 70.722656 275.359375 78.535156 272.078125 82.46875 C 272.003906 82.558594 271.964844 82.65625 271.960938 82.769531 C 271.960938 82.882812 271.992188 82.984375 272.0625 83.078125 C 272.132812 83.167969 272.222656 83.226562 272.332031 83.25 C 272.441406 83.277344 272.550781 83.265625 272.652344 83.21875 C 277.683594 81.054688 283.671875 75.585938 283.671875 75.585938 C 283.671875 75.585938 283.539062 71.777344 279.992188 70.722656 Z M 260.019531 49.171875 C 260.171875 53.835938 256.632812 63.816406 252.09375 73.5625 C 252.039062 73.671875 252.023438 73.785156 252.054688 73.902344 C 252.085938 74.019531 252.148438 74.113281 252.25 74.183594 C 252.351562 74.25 252.460938 74.277344 252.582031 74.261719 C 252.703125 74.246094 252.804688 74.195312 252.882812 74.101562 C 259.574219 66.777344 267.144531 54.988281 267.769531 51.539062 C 268.277344 48.753906 260.023438 49.171875 260.023438 49.171875 Z M 213.667969 56.132812 C 213.652344 56.253906 213.679688 56.363281 213.746094 56.464844 C 213.816406 56.566406 213.910156 56.632812 214.027344 56.664062 C 214.144531 56.695312 214.257812 56.679688 214.367188 56.625 C 214.476562 56.570312 214.550781 56.484375 214.597656 56.371094 L 220.988281 41.683594 L 215.207031 40.375 Z M 195.585938 63.109375 C 195.59375 63.242188 195.652344 63.351562 195.753906 63.4375 C 195.855469 63.527344 195.972656 63.5625 196.105469 63.554688 C 196.238281 63.542969 196.347656 63.488281 196.4375 63.386719 C 196.523438 63.285156 196.558594 63.164062 196.550781 63.03125 L 197.214844 39.445312 L 191.433594 41.679688 Z M 151.222656 49.957031 C 149.117188 49.832031 145.964844 51.273438 145.964844 51.273438 C 146.664062 57.519531 154.230469 70.484375 157.71875 76.199219 C 157.78125 76.308594 157.871094 76.382812 157.988281 76.421875 C 158.105469 76.460938 158.222656 76.453125 158.335938 76.402344 C 158.449219 76.355469 158.53125 76.273438 158.582031 76.160156 C 158.632812 76.046875 158.636719 75.929688 158.597656 75.8125 C 156.742188 68.988281 152.441406 53.328125 151.222656 49.957031 Z M 123.101562 81.882812 L 118.632812 87.148438 C 118.632812 87.148438 128.191406 93.027344 133.40625 95.308594 C 133.644531 95.410156 133.839844 95.359375 133.992188 95.15625 C 134.148438 94.949219 134.140625 94.746094 133.976562 94.550781 C 130.75 90.539062 123.101562 81.882812 123.101562 81.882812 Z M 218.332031 314.226562 C 217.519531 315.042969 215.941406 314.765625 214.796875 313.628906 C 213.65625 312.480469 213.382812 310.898438 214.195312 310.097656 C 215.007812 309.292969 216.585938 309.558594 217.730469 310.699219 C 218.871094 311.84375 219.140625 313.421875 218.332031 314.226562 Z M 218.332031 314.226562 " fill-opacity="1" fill-rule="evenodd"/></g><g clip-path="url(#id2)"><path fill="rgb(33.329773%, 11.759949%, 65.489197%)" d="M 96.910156 236.671875 C 99.074219 234.605469 102.367188 237.871094 100.207031 239.941406 C 98.519531 241.554688 97.222656 243.882812 96.921875 246.1875 C 96.207031 251.710938 101.757812 254.515625 103.78125 259.054688 C 106.269531 264.644531 104.292969 271.269531 100.207031 275.613281 C 98.152344 277.792969 94.871094 274.515625 96.910156 272.34375 C 98.449219 270.714844 99.613281 268.460938 100.054688 266.289062 C 101.242188 260.566406 96.539062 258 94 253.648438 C 90.738281 248.074219 92.347656 241.050781 96.910156 236.671875 Z M 80.421875 236.671875 C 82.578125 234.605469 85.871094 237.871094 83.710938 239.941406 C 82.03125 241.554688 80.726562 243.882812 80.433594 246.1875 C 79.710938 251.710938 85.261719 254.515625 87.285156 259.054688 C 89.777344 264.644531 87.800781 271.269531 83.710938 275.613281 C 81.664062 277.792969 78.375 274.515625 80.421875 272.34375 C 81.953125 270.714844 83.117188 268.460938 83.566406 266.289062 C 84.746094 260.566406 80.046875 258 77.503906 253.648438 C 74.246094 248.074219 75.851562 241.050781 80.421875 236.671875 Z M 63.925781 236.671875 C 66.085938 234.605469 69.375 237.871094 67.21875 239.941406 C 65.535156 241.554688 64.234375 243.882812 63.9375 246.1875 C 63.222656 251.710938 68.773438 254.515625 70.789062 259.054688 C 73.28125 264.644531 71.304688 271.269531 67.21875 275.613281 C 65.167969 277.792969 61.882812 274.515625 63.925781 272.34375 C 65.464844 270.714844 66.621094 268.460938 67.070312 266.289062 C 68.253906 260.566406 63.554688 258 61.011719 253.648438 C 57.753906 248.074219 59.355469 241.050781 63.925781 236.671875 Z M 127.304688 344.433594 L 36.832031 344.433594 C 33.394531 337.011719 29.953125 329.582031 26.515625 322.15625 L 137.621094 322.15625 C 134.179688 329.582031 130.738281 337.011719 127.304688 344.433594 Z M 68.347656 317.535156 L 36.429688 317.535156 C 39.664062 314.402344 46.148438 310.507812 57.363281 312.832031 C 65.773438 314.574219 69.8125 316.132812 72.910156 317.535156 Z M 50.875 299.277344 C 64.320312 298.675781 75.496094 302.984375 85.414062 308.066406 C 85.429688 308.078125 85.441406 308.078125 85.453125 308.085938 C 88.570312 309.6875 91.5625 311.363281 94.464844 312.976562 C 97.328125 314.582031 100.125 316.144531 102.875 317.535156 L 87.773438 317.535156 C 81.921875 316.640625 79.523438 315.523438 76.507812 314.109375 C 73.066406 312.492188 68.785156 310.484375 58.308594 308.316406 C 41.058594 304.738281 32.847656 314.023438 30.425781 317.535156 L 20.550781 317.535156 C 22.816406 312.007812 30.070312 300.195312 50.875 299.277344 Z M 58.046875 290.75 C 65.25 287.359375 73.464844 287.375 82.523438 290.773438 C 75.609375 292.738281 70.503906 295.371094 68.511719 296.496094 C 63.417969 295.222656 57.96875 294.5 52.066406 294.625 C 53.585938 293.324219 55.570312 291.917969 58.046875 290.75 Z M 115.5 317.535156 C 109.730469 316.21875 103.710938 312.855469 96.746094 308.960938 C 95.417969 308.21875 94.066406 307.460938 92.695312 306.707031 C 104.886719 304.105469 115.335938 307.796875 123.292969 317.535156 Z M 110.214844 294.453125 C 121.613281 297.460938 131.238281 305.21875 138.871094 317.535156 L 129.097656 317.535156 C 118.851562 302.894531 103.863281 297.925781 86.738281 303.550781 C 83.023438 301.671875 79.128906 299.910156 75.003906 298.453125 C 82.113281 295.296875 95.941406 290.691406 110.214844 294.453125 Z M 161.886719 317.535156 L 144.277344 317.535156 C 135.789062 302.761719 124.726562 293.492188 111.367188 289.980469 C 103.855469 288.007812 96.566406 288.097656 90.152344 289.097656 C 74.449219 281.167969 62.960938 283.328125 56.050781 286.582031 C 50.089844 289.390625 46.496094 293.414062 45.113281 295.1875 C 32.765625 296.984375 25.496094 302.644531 21.445312 307.394531 C 18.042969 311.390625 16.367188 315.3125 15.613281 317.535156 L 2.246094 317.535156 C -0.746094 317.535156 -0.75 322.15625 2.246094 322.15625 L 21.414062 322.15625 C 25.390625 330.738281 29.367188 339.328125 33.34375 347.90625 C 33.675781 348.628906 34.59375 349.054688 35.351562 349.054688 L 128.78125 349.054688 C 129.539062 349.054688 130.460938 348.628906 130.792969 347.90625 C 134.769531 339.328125 138.746094 330.738281 142.71875 322.15625 L 161.890625 322.15625 C 164.882812 322.15625 164.890625 317.535156 161.890625 317.535156 " fill-opacity="1" fill-rule="nonzero"/></g><g clip-path="url(#id3)"><path fill="rgb(33.329773%, 11.759949%, 65.489197%)" d="M 374.664062 255.644531 C 375.046875 255.226562 375.140625 254.625 374.910156 254.105469 C 374.679688 253.589844 374.164062 253.257812 373.597656 253.257812 L 313.742188 253.257812 L 312.445312 251.269531 C 313.855469 249.945312 314.679688 248.101562 314.679688 246.109375 C 314.679688 242.164062 311.453125 238.957031 307.492188 238.957031 C 306.546875 238.957031 305.625 239.15625 304.757812 239.515625 L 302.949219 236.746094 C 302.515625 236.085938 301.625 235.898438 300.960938 236.328125 C 300.296875 236.757812 300.105469 237.644531 300.539062 238.308594 L 302.371094 241.105469 C 301.066406 242.429688 300.308594 244.210938 300.308594 246.109375 C 300.308594 250.050781 303.53125 253.257812 307.492188 253.257812 C 308.363281 253.257812 309.210938 253.085938 310.007812 252.789062 L 310.3125 253.257812 L 287.375 253.257812 C 286.804688 253.257812 286.292969 253.589844 286.0625 254.105469 C 285.828125 254.625 285.925781 255.226562 286.304688 255.644531 C 298.355469 268.96875 322.867188 295.945312 326.175781 299.578125 L 326.175781 339.195312 L 314.046875 340.261719 C 311.996094 340.527344 310.367188 342.347656 310.367188 344.402344 L 310.367188 345.128906 C 310.367188 347.175781 311.996094 348.917969 313.96875 349.078125 C 314.03125 349.085938 314.109375 349.089844 314.171875 349.089844 L 346.503906 349.089844 C 348.546875 349.089844 350.605469 347.3125 350.605469 345.125 L 350.605469 344.402344 C 350.605469 342.339844 348.828125 340.519531 346.75 340.253906 L 334.796875 339.199219 L 334.796875 299.578125 C 338.101562 295.945312 362.617188 268.96875 374.664062 255.644531 Z M 303.179688 246.109375 C 303.179688 244.683594 303.886719 243.355469 305.0625 242.5625 C 305.785156 242.074219 306.628906 241.816406 307.492188 241.816406 C 309.871094 241.816406 311.804688 243.742188 311.804688 246.109375 C 311.804688 247.601562 311.042969 248.960938 309.75 249.75 C 309.085938 250.175781 308.304688 250.398438 307.492188 250.398438 C 305.117188 250.398438 303.179688 248.472656 303.179688 246.109375 Z M 370.371094 256.121094 C 368.019531 258.714844 365.339844 261.675781 362.519531 264.785156 C 362.382812 264.746094 362.25 264.703125 362.101562 264.703125 L 356.351562 264.703125 C 355.558594 264.703125 354.914062 265.34375 354.914062 266.132812 C 354.914062 266.921875 355.558594 267.5625 356.351562 267.5625 L 360 267.5625 C 353.722656 274.480469 347.035156 281.847656 341.792969 287.613281 C 341.640625 287.636719 341.488281 287.664062 341.339844 287.738281 C 338.121094 289.339844 332.332031 291.878906 330.484375 291.878906 C 328.640625 291.878906 322.847656 289.339844 319.632812 287.738281 C 319.484375 287.664062 319.328125 287.632812 319.175781 287.613281 C 313.9375 281.847656 307.246094 274.480469 300.972656 267.5625 L 341.980469 267.5625 C 342.777344 267.5625 343.417969 266.917969 343.417969 266.128906 C 343.417969 265.339844 342.777344 264.699219 341.980469 264.699219 L 321.207031 264.699219 L 315.609375 256.117188 L 370.371094 256.117188 Z M 312.179688 256.121094 L 317.777344 264.703125 L 298.871094 264.703125 C 298.722656 264.703125 298.589844 264.746094 298.453125 264.785156 C 295.632812 261.675781 292.953125 258.71875 290.601562 256.121094 Z M 333.230469 341.933594 L 346.4375 343.097656 C 347.023438 343.175781 347.730469 343.78125 347.730469 344.402344 L 347.730469 345.125 C 347.730469 345.660156 347 346.226562 346.5 346.226562 L 314.285156 346.226562 C 313.773438 346.226562 313.242188 345.683594 313.242188 345.125 L 313.242188 344.402344 C 313.242188 343.796875 313.8125 343.175781 314.363281 343.101562 L 327.730469 341.933594 C 328.472656 341.867188 329.046875 341.25 329.046875 340.507812 L 329.046875 299.027344 C 329.046875 298.675781 328.917969 298.332031 328.675781 298.070312 C 328.675781 298.070312 326.84375 296.054688 323.914062 292.828125 C 326.355469 293.832031 328.972656 294.738281 330.484375 294.738281 C 331.996094 294.738281 334.613281 293.832031 337.054688 292.832031 C 334.128906 296.054688 332.292969 298.070312 332.292969 298.070312 C 332.054688 298.332031 331.921875 298.675781 331.921875 299.027344 L 331.921875 340.507812 C 331.921875 341.246094 332.492188 341.863281 333.230469 341.933594 Z M 333.230469 341.933594 " fill-opacity="1" fill-rule="nonzero"/></g><path fill="rgb(33.329773%, 11.759949%, 65.489197%)" d="M 346.292969 267.5625 L 352.042969 267.5625 C 352.835938 267.5625 353.480469 266.921875 353.480469 266.132812 C 353.480469 265.34375 352.835938 264.703125 352.042969 264.703125 L 346.292969 264.703125 C 345.5 264.703125 344.855469 265.34375 344.855469 266.132812 C 344.855469 266.921875 345.5 267.5625 346.292969 267.5625 Z M 346.292969 267.5625 " fill-opacity="1" fill-rule="nonzero"/></svg>