<?xml version="1.0" encoding="utf-8"?>
<!-- Svg Vector Icons : http://www.onlinewebfonts.com/icon -->
<!DOCTYPE svg PUBLIC "-//W3C//DTD SVG 1.1//EN" "http://www.w3.org/Graphics/SVG/1.1/DTD/svg11.dtd">
<svg version="1.1" xmlns="http://www.w3.org/2000/svg" xmlns:xlink="http://www.w3.org/1999/xlink" x="0px" y="0px" viewBox="0 0 1000 1000" enable-background="new 0 0 1000 1000" xml:space="preserve">
<metadata> Svg Vector Icons : http://www.onlinewebfonts.com/icon </metadata>
<g><path d="M966.9,885.6c-10.8,0-20.4-7.6-22.5-18.5c-0.3-1.5-15.4-70.3-79.7-137.9c-81.9-86.1-208.5-133.5-367.4-137.6v187.1c0,8.7-4.9,16.6-12.6,20.5c-7.7,3.9-17,3.2-24-1.9L19.5,477.4c-6-4.3-9.5-11.2-9.5-18.6c0-7.4,3.5-14.3,9.5-18.6l441.3-321.3c7-5.1,16.3-5.8,24-1.9c7.7,3.9,12.6,11.9,12.6,20.5v198.6c28.4,1,78,5.3,135.5,20.5c91.5,24.3,167.5,66.7,225.8,126c89.8,91.3,133.9,219.2,131.3,380.4c-0.2,11.8-9.2,21.5-20.9,22.5C968.2,885.5,967.5,885.6,966.9,885.6z M474.3,545.3c102,0,192.4,16.1,268.8,47.7c61.9,25.7,114.7,61.6,157,106.7c13.9,14.8,25.7,29.6,35.7,43.9c-15.3-93.3-52.1-169.9-110-228.8c-124.6-126.6-309-133.1-344.7-133.1c-3.8,0-5.9,0.1-5.9,0.1c-6.3,0.2-12.3-2.1-16.8-6.4s-7.1-10.3-7.1-16.6V182.7L72.2,458.7l379.1,274.8V568.3C451.3,555.6,461.6,545.3,474.3,545.3z"/></g>
</svg>